<mxfile host="app.diagrams.net" agent="Mozilla/5.0 (Windows NT 10.0; Win64; x64) AppleWebKit/537.36 (KHTML, like Gecko) Chrome/129.0.0.0 Safari/537.36" version="24.7.16">
  <diagram name="ER_Diagram" id="_gf59CUDI6Bkcn7BTM0v">
    <mxGraphModel dx="1635" dy="614" grid="1" gridSize="10" guides="1" tooltips="1" connect="1" arrows="1" fold="1" page="0" pageScale="1" pageWidth="850" pageHeight="1100" background="none" math="0" shadow="0">
      <root>
        <mxCell id="0" />
        <mxCell id="1" parent="0" />
        <mxCell id="kcpLFd30aflCC33Eu_P--1" value="Manager" style="whiteSpace=wrap;html=1;align=center;fontFamily=Times New Roman;" parent="1" vertex="1">
          <mxGeometry x="100" y="290" width="100" height="40" as="geometry" />
        </mxCell>
        <mxCell id="kcpLFd30aflCC33Eu_P--4" value="" style="endArrow=none;html=1;rounded=0;exitX=1;exitY=0.5;exitDx=0;exitDy=0;entryX=0;entryY=0.5;entryDx=0;entryDy=0;fontFamily=Times New Roman;" parent="1" source="kcpLFd30aflCC33Eu_P--1" target="kcpLFd30aflCC33Eu_P--12" edge="1">
          <mxGeometry relative="1" as="geometry">
            <mxPoint x="310" y="370" as="sourcePoint" />
            <mxPoint x="350" y="310" as="targetPoint" />
          </mxGeometry>
        </mxCell>
        <mxCell id="kcpLFd30aflCC33Eu_P--5" value="1" style="resizable=0;html=1;whiteSpace=wrap;align=right;verticalAlign=bottom;fontFamily=Times New Roman;" parent="kcpLFd30aflCC33Eu_P--4" connectable="0" vertex="1">
          <mxGeometry x="1" relative="1" as="geometry">
            <mxPoint x="-10" as="offset" />
          </mxGeometry>
        </mxCell>
        <mxCell id="kcpLFd30aflCC33Eu_P--6" value="Booking Request" style="whiteSpace=wrap;html=1;align=center;fontFamily=Times New Roman;" parent="1" vertex="1">
          <mxGeometry x="630" y="290" width="100" height="40" as="geometry" />
        </mxCell>
        <mxCell id="kcpLFd30aflCC33Eu_P--7" value="" style="endArrow=none;html=1;rounded=0;entryX=1;entryY=0.5;entryDx=0;entryDy=0;exitX=0;exitY=0.5;exitDx=0;exitDy=0;fontFamily=Times New Roman;" parent="1" source="kcpLFd30aflCC33Eu_P--6" target="kcpLFd30aflCC33Eu_P--12" edge="1">
          <mxGeometry relative="1" as="geometry">
            <mxPoint x="400" y="420" as="sourcePoint" />
            <mxPoint x="430" y="310" as="targetPoint" />
          </mxGeometry>
        </mxCell>
        <mxCell id="kcpLFd30aflCC33Eu_P--8" value="N" style="resizable=0;html=1;whiteSpace=wrap;align=right;verticalAlign=bottom;fontFamily=Times New Roman;" parent="kcpLFd30aflCC33Eu_P--7" connectable="0" vertex="1">
          <mxGeometry x="1" relative="1" as="geometry">
            <mxPoint x="20" as="offset" />
          </mxGeometry>
        </mxCell>
        <mxCell id="kcpLFd30aflCC33Eu_P--10" value="Vehicle" style="whiteSpace=wrap;html=1;align=center;fontFamily=Times New Roman;" parent="1" vertex="1">
          <mxGeometry x="100" y="610" width="100" height="40" as="geometry" />
        </mxCell>
        <mxCell id="kcpLFd30aflCC33Eu_P--11" value="Customer" style="whiteSpace=wrap;html=1;align=center;fontFamily=Times New Roman;" parent="1" vertex="1">
          <mxGeometry x="630" y="610" width="100" height="40" as="geometry" />
        </mxCell>
        <mxCell id="kcpLFd30aflCC33Eu_P--12" value="Approve/Reject" style="shape=rhombus;perimeter=rhombusPerimeter;whiteSpace=wrap;html=1;align=center;fontFamily=Times New Roman;" parent="1" vertex="1">
          <mxGeometry x="340" y="280" width="120" height="60" as="geometry" />
        </mxCell>
        <mxCell id="kcpLFd30aflCC33Eu_P--13" value="Registers" style="shape=rhombus;perimeter=rhombusPerimeter;whiteSpace=wrap;html=1;align=center;fontFamily=Times New Roman;" parent="1" vertex="1">
          <mxGeometry x="90" y="430" width="120" height="60" as="geometry" />
        </mxCell>
        <mxCell id="kcpLFd30aflCC33Eu_P--14" value="" style="endArrow=none;html=1;rounded=0;exitX=0.5;exitY=1;exitDx=0;exitDy=0;entryX=0.5;entryY=0;entryDx=0;entryDy=0;fontFamily=Times New Roman;" parent="1" source="kcpLFd30aflCC33Eu_P--1" target="kcpLFd30aflCC33Eu_P--13" edge="1">
          <mxGeometry relative="1" as="geometry">
            <mxPoint x="120" y="390" as="sourcePoint" />
            <mxPoint x="280" y="390" as="targetPoint" />
          </mxGeometry>
        </mxCell>
        <mxCell id="kcpLFd30aflCC33Eu_P--15" value="1" style="resizable=0;html=1;whiteSpace=wrap;align=right;verticalAlign=bottom;fontFamily=Times New Roman;" parent="kcpLFd30aflCC33Eu_P--14" connectable="0" vertex="1">
          <mxGeometry x="1" relative="1" as="geometry" />
        </mxCell>
        <mxCell id="kcpLFd30aflCC33Eu_P--16" value="" style="endArrow=none;html=1;rounded=0;entryX=0.5;entryY=1;entryDx=0;entryDy=0;exitX=0.5;exitY=0;exitDx=0;exitDy=0;fontFamily=Times New Roman;" parent="1" source="kcpLFd30aflCC33Eu_P--10" target="kcpLFd30aflCC33Eu_P--13" edge="1">
          <mxGeometry relative="1" as="geometry">
            <mxPoint x="120" y="510" as="sourcePoint" />
            <mxPoint x="280" y="510" as="targetPoint" />
          </mxGeometry>
        </mxCell>
        <mxCell id="kcpLFd30aflCC33Eu_P--17" value="N" style="resizable=0;html=1;whiteSpace=wrap;align=right;verticalAlign=bottom;fontFamily=Times New Roman;" parent="kcpLFd30aflCC33Eu_P--16" connectable="0" vertex="1">
          <mxGeometry x="1" relative="1" as="geometry">
            <mxPoint y="20" as="offset" />
          </mxGeometry>
        </mxCell>
        <mxCell id="kcpLFd30aflCC33Eu_P--18" value="Rents" style="shape=rhombus;perimeter=rhombusPerimeter;whiteSpace=wrap;html=1;align=center;fontFamily=Times New Roman;" parent="1" vertex="1">
          <mxGeometry x="340" y="600" width="120" height="60" as="geometry" />
        </mxCell>
        <mxCell id="kcpLFd30aflCC33Eu_P--19" value="" style="endArrow=none;html=1;rounded=0;entryX=1;entryY=0.5;entryDx=0;entryDy=0;exitX=0;exitY=0.5;exitDx=0;exitDy=0;fontFamily=Times New Roman;" parent="1" source="kcpLFd30aflCC33Eu_P--11" target="kcpLFd30aflCC33Eu_P--18" edge="1">
          <mxGeometry relative="1" as="geometry">
            <mxPoint x="440" y="680" as="sourcePoint" />
            <mxPoint x="600" y="680" as="targetPoint" />
          </mxGeometry>
        </mxCell>
        <mxCell id="kcpLFd30aflCC33Eu_P--20" value="N" style="resizable=0;html=1;whiteSpace=wrap;align=right;verticalAlign=bottom;fontFamily=Times New Roman;" parent="kcpLFd30aflCC33Eu_P--19" connectable="0" vertex="1">
          <mxGeometry x="1" relative="1" as="geometry">
            <mxPoint x="20" as="offset" />
          </mxGeometry>
        </mxCell>
        <mxCell id="kcpLFd30aflCC33Eu_P--21" value="" style="endArrow=none;html=1;rounded=0;exitX=1;exitY=0.5;exitDx=0;exitDy=0;entryX=0;entryY=0.5;entryDx=0;entryDy=0;fontFamily=Times New Roman;" parent="1" source="kcpLFd30aflCC33Eu_P--10" target="kcpLFd30aflCC33Eu_P--18" edge="1">
          <mxGeometry relative="1" as="geometry">
            <mxPoint x="170" y="680" as="sourcePoint" />
            <mxPoint x="330" y="680" as="targetPoint" />
          </mxGeometry>
        </mxCell>
        <mxCell id="kcpLFd30aflCC33Eu_P--22" value="M" style="resizable=0;html=1;whiteSpace=wrap;align=right;verticalAlign=bottom;fontFamily=Times New Roman;" parent="kcpLFd30aflCC33Eu_P--21" connectable="0" vertex="1">
          <mxGeometry x="1" relative="1" as="geometry">
            <mxPoint x="-4" as="offset" />
          </mxGeometry>
        </mxCell>
        <mxCell id="kcpLFd30aflCC33Eu_P--23" value="Makes" style="shape=rhombus;perimeter=rhombusPerimeter;whiteSpace=wrap;html=1;align=center;fontFamily=Times New Roman;" parent="1" vertex="1">
          <mxGeometry x="620" y="430" width="120" height="60" as="geometry" />
        </mxCell>
        <mxCell id="kcpLFd30aflCC33Eu_P--24" value="" style="endArrow=none;html=1;rounded=0;entryX=0.5;entryY=0;entryDx=0;entryDy=0;exitX=0.5;exitY=1;exitDx=0;exitDy=0;fontFamily=Times New Roman;" parent="1" source="kcpLFd30aflCC33Eu_P--6" target="kcpLFd30aflCC33Eu_P--23" edge="1">
          <mxGeometry relative="1" as="geometry">
            <mxPoint x="700" y="380" as="sourcePoint" />
            <mxPoint x="810" y="390" as="targetPoint" />
          </mxGeometry>
        </mxCell>
        <mxCell id="kcpLFd30aflCC33Eu_P--25" value="N" style="resizable=0;html=1;whiteSpace=wrap;align=right;verticalAlign=bottom;fontFamily=Times New Roman;" parent="kcpLFd30aflCC33Eu_P--24" connectable="0" vertex="1">
          <mxGeometry x="1" relative="1" as="geometry" />
        </mxCell>
        <mxCell id="kcpLFd30aflCC33Eu_P--26" value="" style="endArrow=none;html=1;rounded=0;entryX=0.5;entryY=1;entryDx=0;entryDy=0;exitX=0.5;exitY=0;exitDx=0;exitDy=0;fontFamily=Times New Roman;" parent="1" source="kcpLFd30aflCC33Eu_P--11" target="kcpLFd30aflCC33Eu_P--23" edge="1">
          <mxGeometry relative="1" as="geometry">
            <mxPoint x="630" y="530" as="sourcePoint" />
            <mxPoint x="810" y="510" as="targetPoint" />
          </mxGeometry>
        </mxCell>
        <mxCell id="kcpLFd30aflCC33Eu_P--27" value="1" style="resizable=0;html=1;whiteSpace=wrap;align=right;verticalAlign=bottom;fontFamily=Times New Roman;" parent="kcpLFd30aflCC33Eu_P--26" connectable="0" vertex="1">
          <mxGeometry x="1" relative="1" as="geometry">
            <mxPoint y="20" as="offset" />
          </mxGeometry>
        </mxCell>
        <mxCell id="kcpLFd30aflCC33Eu_P--29" value="Views" style="shape=rhombus;perimeter=rhombusPerimeter;whiteSpace=wrap;html=1;align=center;fontFamily=Times New Roman;" parent="1" vertex="1">
          <mxGeometry x="220" y="350" width="120" height="60" as="geometry" />
        </mxCell>
        <mxCell id="kcpLFd30aflCC33Eu_P--30" value="" style="endArrow=none;html=1;rounded=0;exitX=1;exitY=1;exitDx=0;exitDy=0;entryX=0;entryY=0.5;entryDx=0;entryDy=0;fontFamily=Times New Roman;" parent="1" source="kcpLFd30aflCC33Eu_P--1" target="kcpLFd30aflCC33Eu_P--29" edge="1">
          <mxGeometry relative="1" as="geometry">
            <mxPoint x="110" y="370" as="sourcePoint" />
            <mxPoint x="250" y="340" as="targetPoint" />
          </mxGeometry>
        </mxCell>
        <mxCell id="kcpLFd30aflCC33Eu_P--31" value="1" style="resizable=0;html=1;whiteSpace=wrap;align=right;verticalAlign=bottom;fontFamily=Times New Roman;" parent="kcpLFd30aflCC33Eu_P--30" connectable="0" vertex="1">
          <mxGeometry x="1" relative="1" as="geometry">
            <mxPoint x="6" y="-5" as="offset" />
          </mxGeometry>
        </mxCell>
        <mxCell id="kcpLFd30aflCC33Eu_P--33" value="" style="endArrow=none;html=1;rounded=0;exitX=0;exitY=0;exitDx=0;exitDy=0;entryX=1;entryY=0.5;entryDx=0;entryDy=0;fontFamily=Times New Roman;" parent="1" source="JV7PK_FPuY5Su9PfBJnE-3" target="kcpLFd30aflCC33Eu_P--29" edge="1">
          <mxGeometry relative="1" as="geometry">
            <mxPoint x="350" y="440" as="sourcePoint" />
            <mxPoint x="310" y="440" as="targetPoint" />
          </mxGeometry>
        </mxCell>
        <mxCell id="kcpLFd30aflCC33Eu_P--34" value="N" style="resizable=0;html=1;whiteSpace=wrap;align=right;verticalAlign=bottom;fontFamily=Times New Roman;" parent="kcpLFd30aflCC33Eu_P--33" connectable="0" vertex="1">
          <mxGeometry x="1" relative="1" as="geometry">
            <mxPoint x="16" y="24" as="offset" />
          </mxGeometry>
        </mxCell>
        <mxCell id="kcpLFd30aflCC33Eu_P--36" value="" style="endArrow=none;html=1;rounded=0;exitX=0;exitY=0;exitDx=0;exitDy=0;fontFamily=Times New Roman;entryX=1;entryY=0.5;entryDx=0;entryDy=0;" parent="1" source="kcpLFd30aflCC33Eu_P--11" target="JV7PK_FPuY5Su9PfBJnE-39" edge="1">
          <mxGeometry relative="1" as="geometry">
            <mxPoint x="490" y="590" as="sourcePoint" />
            <mxPoint x="640" y="540" as="targetPoint" />
          </mxGeometry>
        </mxCell>
        <mxCell id="kcpLFd30aflCC33Eu_P--37" value="1" style="resizable=0;html=1;whiteSpace=wrap;align=right;verticalAlign=bottom;fontFamily=Times New Roman;" parent="kcpLFd30aflCC33Eu_P--36" connectable="0" vertex="1">
          <mxGeometry x="1" relative="1" as="geometry">
            <mxPoint x="17" y="20" as="offset" />
          </mxGeometry>
        </mxCell>
        <mxCell id="kcpLFd30aflCC33Eu_P--38" value="" style="endArrow=none;html=1;rounded=0;exitX=1;exitY=1;exitDx=0;exitDy=0;fontFamily=Times New Roman;entryX=0;entryY=0.5;entryDx=0;entryDy=0;" parent="1" source="JV7PK_FPuY5Su9PfBJnE-3" target="JV7PK_FPuY5Su9PfBJnE-39" edge="1">
          <mxGeometry relative="1" as="geometry">
            <mxPoint x="450" y="480" as="sourcePoint" />
            <mxPoint x="490" y="490" as="targetPoint" />
          </mxGeometry>
        </mxCell>
        <mxCell id="kcpLFd30aflCC33Eu_P--39" value="N" style="resizable=0;html=1;whiteSpace=wrap;align=right;verticalAlign=bottom;fontFamily=Times New Roman;" parent="kcpLFd30aflCC33Eu_P--38" connectable="0" vertex="1">
          <mxGeometry x="1" relative="1" as="geometry">
            <mxPoint x="6" y="-5" as="offset" />
          </mxGeometry>
        </mxCell>
        <mxCell id="kcpLFd30aflCC33Eu_P--42" value="Manager_ID" style="ellipse;whiteSpace=wrap;html=1;align=center;fontStyle=4;fontFamily=Times New Roman;" parent="1" vertex="1">
          <mxGeometry y="224" width="100" height="40" as="geometry" />
        </mxCell>
        <mxCell id="kcpLFd30aflCC33Eu_P--43" value="Name" style="ellipse;whiteSpace=wrap;html=1;align=center;fontFamily=Times New Roman;" parent="1" vertex="1">
          <mxGeometry x="120" y="231" width="100" height="40" as="geometry" />
        </mxCell>
        <mxCell id="kcpLFd30aflCC33Eu_P--44" value="First_Name" style="ellipse;whiteSpace=wrap;html=1;align=center;fontFamily=Times New Roman;" parent="1" vertex="1">
          <mxGeometry x="82" y="170" width="100" height="40" as="geometry" />
        </mxCell>
        <mxCell id="kcpLFd30aflCC33Eu_P--45" value="Last_Name" style="ellipse;whiteSpace=wrap;html=1;align=center;fontFamily=Times New Roman;" parent="1" vertex="1">
          <mxGeometry x="187" y="180" width="100" height="40" as="geometry" />
        </mxCell>
        <mxCell id="kcpLFd30aflCC33Eu_P--49" value="" style="endArrow=none;html=1;rounded=0;exitX=0.5;exitY=1;exitDx=0;exitDy=0;entryX=0.5;entryY=0;entryDx=0;entryDy=0;fontFamily=Times New Roman;" parent="1" source="kcpLFd30aflCC33Eu_P--45" target="kcpLFd30aflCC33Eu_P--43" edge="1">
          <mxGeometry relative="1" as="geometry">
            <mxPoint x="150" y="150" as="sourcePoint" />
            <mxPoint x="310" y="150" as="targetPoint" />
          </mxGeometry>
        </mxCell>
        <mxCell id="kcpLFd30aflCC33Eu_P--50" value="" style="endArrow=none;html=1;rounded=0;exitX=0.5;exitY=1;exitDx=0;exitDy=0;entryX=0.5;entryY=0;entryDx=0;entryDy=0;fontFamily=Times New Roman;" parent="1" source="kcpLFd30aflCC33Eu_P--44" target="kcpLFd30aflCC33Eu_P--43" edge="1">
          <mxGeometry relative="1" as="geometry">
            <mxPoint x="50" y="150" as="sourcePoint" />
            <mxPoint x="210" y="150" as="targetPoint" />
          </mxGeometry>
        </mxCell>
        <mxCell id="kcpLFd30aflCC33Eu_P--51" value="Email" style="ellipse;whiteSpace=wrap;html=1;align=center;fontFamily=Times New Roman;" parent="1" vertex="1">
          <mxGeometry x="-30" y="320" width="100" height="40" as="geometry" />
        </mxCell>
        <mxCell id="kcpLFd30aflCC33Eu_P--52" value="Password" style="ellipse;whiteSpace=wrap;html=1;align=center;fontFamily=Times New Roman;" parent="1" vertex="1">
          <mxGeometry x="-50" y="270" width="100" height="40" as="geometry" />
        </mxCell>
        <mxCell id="kcpLFd30aflCC33Eu_P--55" value="Action_Type" style="ellipse;whiteSpace=wrap;html=1;align=center;fontFamily=Times New Roman;" parent="1" vertex="1">
          <mxGeometry x="300" y="213" width="100" height="40" as="geometry" />
        </mxCell>
        <mxCell id="kcpLFd30aflCC33Eu_P--56" value="Action_Date" style="ellipse;whiteSpace=wrap;html=1;align=center;fontFamily=Times New Roman;" parent="1" vertex="1">
          <mxGeometry x="411" y="213" width="100" height="40" as="geometry" />
        </mxCell>
        <mxCell id="TLZ399gAx6iWlrF9jIj5-3" value="" style="endArrow=none;html=1;rounded=0;entryX=1;entryY=0.5;entryDx=0;entryDy=0;exitX=0;exitY=1;exitDx=0;exitDy=0;fontFamily=Times New Roman;" parent="1" source="kcpLFd30aflCC33Eu_P--1" target="kcpLFd30aflCC33Eu_P--51" edge="1">
          <mxGeometry relative="1" as="geometry">
            <mxPoint x="-110" y="450" as="sourcePoint" />
            <mxPoint x="50" y="450" as="targetPoint" />
          </mxGeometry>
        </mxCell>
        <mxCell id="TLZ399gAx6iWlrF9jIj5-4" value="" style="endArrow=none;html=1;rounded=0;entryX=0.5;entryY=1;entryDx=0;entryDy=0;exitX=0.5;exitY=0;exitDx=0;exitDy=0;fontFamily=Times New Roman;" parent="1" source="kcpLFd30aflCC33Eu_P--1" target="kcpLFd30aflCC33Eu_P--43" edge="1">
          <mxGeometry relative="1" as="geometry">
            <mxPoint x="60" y="270" as="sourcePoint" />
            <mxPoint x="220" y="270" as="targetPoint" />
          </mxGeometry>
        </mxCell>
        <mxCell id="TLZ399gAx6iWlrF9jIj5-6" value="" style="endArrow=none;html=1;rounded=0;entryX=1;entryY=0.5;entryDx=0;entryDy=0;exitX=0;exitY=0.5;exitDx=0;exitDy=0;fontFamily=Times New Roman;" parent="1" source="kcpLFd30aflCC33Eu_P--1" target="kcpLFd30aflCC33Eu_P--52" edge="1">
          <mxGeometry relative="1" as="geometry">
            <mxPoint x="-140" y="160" as="sourcePoint" />
            <mxPoint x="20" y="160" as="targetPoint" />
          </mxGeometry>
        </mxCell>
        <mxCell id="LAeCARpH9w-UXR4KimiY-1" value="&lt;u&gt;Request_ID&lt;/u&gt;" style="ellipse;whiteSpace=wrap;html=1;align=center;fontFamily=Times New Roman;" parent="1" vertex="1">
          <mxGeometry x="770" y="251" width="100" height="40" as="geometry" />
        </mxCell>
        <mxCell id="LAeCARpH9w-UXR4KimiY-2" value="Request_Date" style="ellipse;whiteSpace=wrap;html=1;align=center;fontFamily=Times New Roman;" parent="1" vertex="1">
          <mxGeometry x="744" y="330" width="100" height="40" as="geometry" />
        </mxCell>
        <mxCell id="LAeCARpH9w-UXR4KimiY-3" value="From_Date" style="ellipse;whiteSpace=wrap;html=1;align=center;fontFamily=Times New Roman;" parent="1" vertex="1">
          <mxGeometry x="635" y="191" width="100" height="40" as="geometry" />
        </mxCell>
        <mxCell id="LAeCARpH9w-UXR4KimiY-4" value="Request_Status" style="ellipse;whiteSpace=wrap;html=1;align=center;fontFamily=Times New Roman;" parent="1" vertex="1">
          <mxGeometry x="550" y="220" width="100" height="40" as="geometry" />
        </mxCell>
        <mxCell id="LAeCARpH9w-UXR4KimiY-6" value="To_Date" style="ellipse;whiteSpace=wrap;html=1;align=center;fontFamily=Times New Roman;" parent="1" vertex="1">
          <mxGeometry x="724" y="213" width="100" height="40" as="geometry" />
        </mxCell>
        <mxCell id="LAeCARpH9w-UXR4KimiY-8" value="" style="endArrow=none;html=1;rounded=0;exitX=0;exitY=0.5;exitDx=0;exitDy=0;entryX=1;entryY=1;entryDx=0;entryDy=0;fontFamily=Times New Roman;" parent="1" source="LAeCARpH9w-UXR4KimiY-2" target="kcpLFd30aflCC33Eu_P--6" edge="1">
          <mxGeometry relative="1" as="geometry">
            <mxPoint x="560" y="180" as="sourcePoint" />
            <mxPoint x="720" y="180" as="targetPoint" />
          </mxGeometry>
        </mxCell>
        <mxCell id="LAeCARpH9w-UXR4KimiY-9" value="" style="endArrow=none;html=1;rounded=0;exitX=0.684;exitY=1.01;exitDx=0;exitDy=0;entryX=0.25;entryY=0;entryDx=0;entryDy=0;exitPerimeter=0;fontFamily=Times New Roman;" parent="1" source="LAeCARpH9w-UXR4KimiY-4" target="kcpLFd30aflCC33Eu_P--6" edge="1">
          <mxGeometry relative="1" as="geometry">
            <mxPoint x="450" y="150" as="sourcePoint" />
            <mxPoint x="610" y="150" as="targetPoint" />
          </mxGeometry>
        </mxCell>
        <mxCell id="LAeCARpH9w-UXR4KimiY-10" value="" style="endArrow=none;html=1;rounded=0;entryX=0.5;entryY=1;entryDx=0;entryDy=0;exitX=0.5;exitY=0;exitDx=0;exitDy=0;fontFamily=Times New Roman;" parent="1" source="kcpLFd30aflCC33Eu_P--6" target="LAeCARpH9w-UXR4KimiY-3" edge="1">
          <mxGeometry relative="1" as="geometry">
            <mxPoint x="550" y="130" as="sourcePoint" />
            <mxPoint x="710" y="130" as="targetPoint" />
          </mxGeometry>
        </mxCell>
        <mxCell id="LAeCARpH9w-UXR4KimiY-11" value="" style="endArrow=none;html=1;rounded=0;entryX=0;entryY=1;entryDx=0;entryDy=0;exitX=0.75;exitY=0;exitDx=0;exitDy=0;fontFamily=Times New Roman;" parent="1" source="kcpLFd30aflCC33Eu_P--6" target="LAeCARpH9w-UXR4KimiY-6" edge="1">
          <mxGeometry relative="1" as="geometry">
            <mxPoint x="590" y="160" as="sourcePoint" />
            <mxPoint x="750" y="160" as="targetPoint" />
          </mxGeometry>
        </mxCell>
        <mxCell id="LAeCARpH9w-UXR4KimiY-12" value="" style="endArrow=none;html=1;rounded=0;entryX=0;entryY=0.5;entryDx=0;entryDy=0;exitX=1;exitY=0;exitDx=0;exitDy=0;fontFamily=Times New Roman;" parent="1" source="kcpLFd30aflCC33Eu_P--6" target="LAeCARpH9w-UXR4KimiY-1" edge="1">
          <mxGeometry relative="1" as="geometry">
            <mxPoint x="620" y="150" as="sourcePoint" />
            <mxPoint x="780" y="150" as="targetPoint" />
          </mxGeometry>
        </mxCell>
        <mxCell id="t6r5ONHygv6hq4Dt3Neo-12" value="Vehicle_Overview" style="ellipse;whiteSpace=wrap;html=1;align=center;fontFamily=Times New Roman;" parent="1" vertex="1">
          <mxGeometry x="200" y="662" width="100" height="40" as="geometry" />
        </mxCell>
        <mxCell id="t6r5ONHygv6hq4Dt3Neo-13" value="Model_Year" style="ellipse;whiteSpace=wrap;html=1;align=center;fontFamily=Times New Roman;" parent="1" vertex="1">
          <mxGeometry x="170" y="710" width="100" height="40" as="geometry" />
        </mxCell>
        <mxCell id="t6r5ONHygv6hq4Dt3Neo-14" value="Vehicle_Name" style="ellipse;whiteSpace=wrap;html=1;align=center;fontFamily=Times New Roman;" parent="1" vertex="1">
          <mxGeometry x="40" y="721" width="100" height="40" as="geometry" />
        </mxCell>
        <mxCell id="t6r5ONHygv6hq4Dt3Neo-15" value="&lt;u&gt;Vehicle_ID&lt;/u&gt;" style="ellipse;whiteSpace=wrap;html=1;align=center;fontFamily=Times New Roman;" parent="1" vertex="1">
          <mxGeometry x="-18" y="681" width="100" height="40" as="geometry" />
        </mxCell>
        <mxCell id="t6r5ONHygv6hq4Dt3Neo-16" value="Fuel_Type" style="ellipse;whiteSpace=wrap;html=1;align=center;fontFamily=Times New Roman;" parent="1" vertex="1">
          <mxGeometry x="-60" y="638" width="100" height="40" as="geometry" />
        </mxCell>
        <mxCell id="t6r5ONHygv6hq4Dt3Neo-17" value="Price_Per_Day" style="ellipse;whiteSpace=wrap;html=1;align=center;fontFamily=Times New Roman;" parent="1" vertex="1">
          <mxGeometry x="-60" y="590" width="100" height="40" as="geometry" />
        </mxCell>
        <mxCell id="t6r5ONHygv6hq4Dt3Neo-18" value="Seating_Capacity" style="ellipse;whiteSpace=wrap;html=1;align=center;fontFamily=Times New Roman;" parent="1" vertex="1">
          <mxGeometry x="-3" y="550" width="100" height="40" as="geometry" />
        </mxCell>
        <mxCell id="t6r5ONHygv6hq4Dt3Neo-23" value="" style="endArrow=none;html=1;rounded=0;exitX=1;exitY=0.5;exitDx=0;exitDy=0;entryX=0.25;entryY=0;entryDx=0;entryDy=0;fontFamily=Times New Roman;" parent="1" source="t6r5ONHygv6hq4Dt3Neo-18" target="kcpLFd30aflCC33Eu_P--10" edge="1">
          <mxGeometry relative="1" as="geometry">
            <mxPoint x="30" y="620" as="sourcePoint" />
            <mxPoint x="190" y="620" as="targetPoint" />
          </mxGeometry>
        </mxCell>
        <mxCell id="t6r5ONHygv6hq4Dt3Neo-24" value="" style="endArrow=none;html=1;rounded=0;exitX=1;exitY=0.5;exitDx=0;exitDy=0;entryX=0;entryY=0.25;entryDx=0;entryDy=0;fontFamily=Times New Roman;" parent="1" source="t6r5ONHygv6hq4Dt3Neo-17" target="kcpLFd30aflCC33Eu_P--10" edge="1">
          <mxGeometry relative="1" as="geometry">
            <mxPoint x="50" y="670" as="sourcePoint" />
            <mxPoint x="210" y="670" as="targetPoint" />
          </mxGeometry>
        </mxCell>
        <mxCell id="t6r5ONHygv6hq4Dt3Neo-25" value="" style="endArrow=none;html=1;rounded=0;exitX=1;exitY=0;exitDx=0;exitDy=0;entryX=0;entryY=0.75;entryDx=0;entryDy=0;fontFamily=Times New Roman;" parent="1" source="t6r5ONHygv6hq4Dt3Neo-16" target="kcpLFd30aflCC33Eu_P--10" edge="1">
          <mxGeometry relative="1" as="geometry">
            <mxPoint x="30" y="680" as="sourcePoint" />
            <mxPoint x="190" y="680" as="targetPoint" />
          </mxGeometry>
        </mxCell>
        <mxCell id="t6r5ONHygv6hq4Dt3Neo-26" value="" style="endArrow=none;html=1;rounded=0;exitX=1;exitY=0;exitDx=0;exitDy=0;entryX=0;entryY=1;entryDx=0;entryDy=0;fontFamily=Times New Roman;" parent="1" source="t6r5ONHygv6hq4Dt3Neo-15" target="kcpLFd30aflCC33Eu_P--10" edge="1">
          <mxGeometry relative="1" as="geometry">
            <mxPoint x="120" y="680" as="sourcePoint" />
            <mxPoint x="280" y="680" as="targetPoint" />
          </mxGeometry>
        </mxCell>
        <mxCell id="t6r5ONHygv6hq4Dt3Neo-27" value="" style="endArrow=none;html=1;rounded=0;exitX=0.5;exitY=0;exitDx=0;exitDy=0;entryX=0.25;entryY=1;entryDx=0;entryDy=0;fontFamily=Times New Roman;" parent="1" source="t6r5ONHygv6hq4Dt3Neo-14" target="kcpLFd30aflCC33Eu_P--10" edge="1">
          <mxGeometry relative="1" as="geometry">
            <mxPoint x="140" y="690" as="sourcePoint" />
            <mxPoint x="300" y="690" as="targetPoint" />
          </mxGeometry>
        </mxCell>
        <mxCell id="t6r5ONHygv6hq4Dt3Neo-28" value="" style="endArrow=none;html=1;rounded=0;exitX=0;exitY=0;exitDx=0;exitDy=0;entryX=0.75;entryY=1;entryDx=0;entryDy=0;fontFamily=Times New Roman;" parent="1" source="t6r5ONHygv6hq4Dt3Neo-13" target="kcpLFd30aflCC33Eu_P--10" edge="1">
          <mxGeometry relative="1" as="geometry">
            <mxPoint x="-50" y="780" as="sourcePoint" />
            <mxPoint x="110" y="780" as="targetPoint" />
          </mxGeometry>
        </mxCell>
        <mxCell id="t6r5ONHygv6hq4Dt3Neo-29" value="" style="endArrow=none;html=1;rounded=0;exitX=1;exitY=1;exitDx=0;exitDy=0;entryX=0;entryY=0;entryDx=0;entryDy=0;fontFamily=Times New Roman;" parent="1" source="kcpLFd30aflCC33Eu_P--10" target="t6r5ONHygv6hq4Dt3Neo-12" edge="1">
          <mxGeometry relative="1" as="geometry">
            <mxPoint x="220" y="660" as="sourcePoint" />
            <mxPoint x="380" y="660" as="targetPoint" />
          </mxGeometry>
        </mxCell>
        <mxCell id="t6r5ONHygv6hq4Dt3Neo-30" value="Mobile_No." style="ellipse;whiteSpace=wrap;html=1;align=center;fontFamily=Times New Roman;" parent="1" vertex="1">
          <mxGeometry x="517" y="670" width="100" height="40" as="geometry" />
        </mxCell>
        <mxCell id="t6r5ONHygv6hq4Dt3Neo-31" value="Date_Of_Birth" style="ellipse;whiteSpace=wrap;html=1;align=center;fontFamily=Times New Roman;" parent="1" vertex="1">
          <mxGeometry x="700" y="536" width="100" height="40" as="geometry" />
        </mxCell>
        <mxCell id="t6r5ONHygv6hq4Dt3Neo-32" value="Password" style="ellipse;whiteSpace=wrap;html=1;align=center;fontFamily=Times New Roman;" parent="1" vertex="1">
          <mxGeometry x="800" y="550" width="100" height="40" as="geometry" />
        </mxCell>
        <mxCell id="t6r5ONHygv6hq4Dt3Neo-33" value="&lt;u&gt;Customer_ID&lt;/u&gt;" style="ellipse;whiteSpace=wrap;html=1;align=center;fontFamily=Times New Roman;" parent="1" vertex="1">
          <mxGeometry x="830" y="590" width="100" height="40" as="geometry" />
        </mxCell>
        <mxCell id="t6r5ONHygv6hq4Dt3Neo-34" value="Name" style="ellipse;whiteSpace=wrap;html=1;align=center;fontFamily=Times New Roman;" parent="1" vertex="1">
          <mxGeometry x="744" y="670" width="100" height="40" as="geometry" />
        </mxCell>
        <mxCell id="t6r5ONHygv6hq4Dt3Neo-35" value="Email" style="ellipse;whiteSpace=wrap;html=1;align=center;fontFamily=Times New Roman;" parent="1" vertex="1">
          <mxGeometry x="693" y="710" width="100" height="40" as="geometry" />
        </mxCell>
        <mxCell id="t6r5ONHygv6hq4Dt3Neo-36" value="Address" style="ellipse;whiteSpace=wrap;html=1;align=center;fontFamily=Times New Roman;" parent="1" vertex="1">
          <mxGeometry x="591" y="702" width="100" height="40" as="geometry" />
        </mxCell>
        <mxCell id="t6r5ONHygv6hq4Dt3Neo-37" value="" style="endArrow=none;html=1;rounded=0;exitX=0;exitY=1;exitDx=0;exitDy=0;entryX=0.75;entryY=0;entryDx=0;entryDy=0;fontFamily=Times New Roman;" parent="1" source="t6r5ONHygv6hq4Dt3Neo-31" target="kcpLFd30aflCC33Eu_P--11" edge="1">
          <mxGeometry relative="1" as="geometry">
            <mxPoint x="660" y="780" as="sourcePoint" />
            <mxPoint x="820" y="780" as="targetPoint" />
          </mxGeometry>
        </mxCell>
        <mxCell id="t6r5ONHygv6hq4Dt3Neo-38" value="" style="endArrow=none;html=1;rounded=0;exitX=0;exitY=1;exitDx=0;exitDy=0;entryX=1;entryY=0;entryDx=0;entryDy=0;fontFamily=Times New Roman;" parent="1" source="kcpLFd30aflCC33Eu_P--11" target="t6r5ONHygv6hq4Dt3Neo-30" edge="1">
          <mxGeometry relative="1" as="geometry">
            <mxPoint x="550" y="790" as="sourcePoint" />
            <mxPoint x="710" y="790" as="targetPoint" />
          </mxGeometry>
        </mxCell>
        <mxCell id="t6r5ONHygv6hq4Dt3Neo-39" value="" style="endArrow=none;html=1;rounded=0;exitX=0.25;exitY=1;exitDx=0;exitDy=0;entryX=0.5;entryY=0;entryDx=0;entryDy=0;fontFamily=Times New Roman;" parent="1" source="kcpLFd30aflCC33Eu_P--11" target="t6r5ONHygv6hq4Dt3Neo-36" edge="1">
          <mxGeometry relative="1" as="geometry">
            <mxPoint x="580" y="780" as="sourcePoint" />
            <mxPoint x="740" y="780" as="targetPoint" />
          </mxGeometry>
        </mxCell>
        <mxCell id="t6r5ONHygv6hq4Dt3Neo-40" value="" style="endArrow=none;html=1;rounded=0;exitX=0.5;exitY=1;exitDx=0;exitDy=0;entryX=0.236;entryY=0.054;entryDx=0;entryDy=0;entryPerimeter=0;fontFamily=Times New Roman;" parent="1" source="kcpLFd30aflCC33Eu_P--11" target="t6r5ONHygv6hq4Dt3Neo-35" edge="1">
          <mxGeometry relative="1" as="geometry">
            <mxPoint x="680" y="770" as="sourcePoint" />
            <mxPoint x="840" y="770" as="targetPoint" />
          </mxGeometry>
        </mxCell>
        <mxCell id="t6r5ONHygv6hq4Dt3Neo-41" value="" style="endArrow=none;html=1;rounded=0;exitX=0.75;exitY=1;exitDx=0;exitDy=0;entryX=0;entryY=0;entryDx=0;entryDy=0;fontFamily=Times New Roman;" parent="1" source="kcpLFd30aflCC33Eu_P--11" target="t6r5ONHygv6hq4Dt3Neo-34" edge="1">
          <mxGeometry relative="1" as="geometry">
            <mxPoint x="760" y="760" as="sourcePoint" />
            <mxPoint x="920" y="760" as="targetPoint" />
          </mxGeometry>
        </mxCell>
        <mxCell id="t6r5ONHygv6hq4Dt3Neo-42" value="" style="endArrow=none;html=1;rounded=0;exitX=1;exitY=0.5;exitDx=0;exitDy=0;entryX=0;entryY=0.5;entryDx=0;entryDy=0;fontFamily=Times New Roman;" parent="1" source="kcpLFd30aflCC33Eu_P--11" target="t6r5ONHygv6hq4Dt3Neo-33" edge="1">
          <mxGeometry relative="1" as="geometry">
            <mxPoint x="790" y="770" as="sourcePoint" />
            <mxPoint x="950" y="770" as="targetPoint" />
          </mxGeometry>
        </mxCell>
        <mxCell id="t6r5ONHygv6hq4Dt3Neo-43" value="" style="endArrow=none;html=1;rounded=0;exitX=1;exitY=0;exitDx=0;exitDy=0;entryX=0;entryY=0.5;entryDx=0;entryDy=0;fontFamily=Times New Roman;" parent="1" source="kcpLFd30aflCC33Eu_P--11" target="t6r5ONHygv6hq4Dt3Neo-32" edge="1">
          <mxGeometry relative="1" as="geometry">
            <mxPoint x="760" y="750" as="sourcePoint" />
            <mxPoint x="920" y="750" as="targetPoint" />
          </mxGeometry>
        </mxCell>
        <mxCell id="t6r5ONHygv6hq4Dt3Neo-44" value="Street_Name" style="ellipse;whiteSpace=wrap;html=1;align=center;fontFamily=Times New Roman;" parent="1" vertex="1">
          <mxGeometry x="480" y="742" width="100" height="40" as="geometry" />
        </mxCell>
        <mxCell id="t6r5ONHygv6hq4Dt3Neo-45" value="City_Name" style="ellipse;whiteSpace=wrap;html=1;align=center;fontFamily=Times New Roman;" parent="1" vertex="1">
          <mxGeometry x="535" y="782" width="100" height="40" as="geometry" />
        </mxCell>
        <mxCell id="t6r5ONHygv6hq4Dt3Neo-46" value="Pincode" style="ellipse;whiteSpace=wrap;html=1;align=center;fontFamily=Times New Roman;" parent="1" vertex="1">
          <mxGeometry x="635" y="770" width="100" height="40" as="geometry" />
        </mxCell>
        <mxCell id="t6r5ONHygv6hq4Dt3Neo-47" value="" style="endArrow=none;html=1;rounded=0;exitX=1;exitY=0;exitDx=0;exitDy=0;entryX=0.5;entryY=1;entryDx=0;entryDy=0;fontFamily=Times New Roman;" parent="1" source="t6r5ONHygv6hq4Dt3Neo-44" target="t6r5ONHygv6hq4Dt3Neo-36" edge="1">
          <mxGeometry relative="1" as="geometry">
            <mxPoint x="650" y="850" as="sourcePoint" />
            <mxPoint x="810" y="850" as="targetPoint" />
          </mxGeometry>
        </mxCell>
        <mxCell id="t6r5ONHygv6hq4Dt3Neo-48" value="" style="endArrow=none;html=1;rounded=0;exitX=0.5;exitY=0;exitDx=0;exitDy=0;entryX=0.5;entryY=1;entryDx=0;entryDy=0;fontFamily=Times New Roman;" parent="1" source="t6r5ONHygv6hq4Dt3Neo-45" target="t6r5ONHygv6hq4Dt3Neo-36" edge="1">
          <mxGeometry relative="1" as="geometry">
            <mxPoint x="620" y="870" as="sourcePoint" />
            <mxPoint x="780" y="870" as="targetPoint" />
          </mxGeometry>
        </mxCell>
        <mxCell id="t6r5ONHygv6hq4Dt3Neo-49" value="" style="endArrow=none;html=1;rounded=0;exitX=0.5;exitY=0;exitDx=0;exitDy=0;entryX=0.5;entryY=1;entryDx=0;entryDy=0;fontFamily=Times New Roman;" parent="1" source="t6r5ONHygv6hq4Dt3Neo-46" target="t6r5ONHygv6hq4Dt3Neo-36" edge="1">
          <mxGeometry relative="1" as="geometry">
            <mxPoint x="720" y="830" as="sourcePoint" />
            <mxPoint x="880" y="830" as="targetPoint" />
          </mxGeometry>
        </mxCell>
        <mxCell id="t6r5ONHygv6hq4Dt3Neo-50" value="Timestamp" style="ellipse;whiteSpace=wrap;html=1;align=center;fontFamily=Times New Roman;" parent="1" vertex="1">
          <mxGeometry x="350" y="510" width="100" height="40" as="geometry" />
        </mxCell>
        <mxCell id="t6r5ONHygv6hq4Dt3Neo-54" value="Rating" style="ellipse;whiteSpace=wrap;html=1;align=center;fontFamily=Times New Roman;" parent="1" vertex="1">
          <mxGeometry x="472" y="412" width="100" height="40" as="geometry" />
        </mxCell>
        <mxCell id="t6r5ONHygv6hq4Dt3Neo-56" value="" style="endArrow=none;html=1;rounded=0;exitX=0.5;exitY=0;exitDx=0;exitDy=0;entryX=0.5;entryY=1;entryDx=0;entryDy=0;fontFamily=Times New Roman;" parent="1" source="t6r5ONHygv6hq4Dt3Neo-50" target="JV7PK_FPuY5Su9PfBJnE-3" edge="1">
          <mxGeometry relative="1" as="geometry">
            <mxPoint x="300" y="570" as="sourcePoint" />
            <mxPoint x="400" y="480" as="targetPoint" />
          </mxGeometry>
        </mxCell>
        <mxCell id="t6r5ONHygv6hq4Dt3Neo-58" value="" style="endArrow=none;html=1;rounded=0;exitX=0.5;exitY=0;exitDx=0;exitDy=0;entryX=0.5;entryY=1;entryDx=0;entryDy=0;fontFamily=Times New Roman;" parent="1" source="JV7PK_FPuY5Su9PfBJnE-3" target="JV7PK_FPuY5Su9PfBJnE-2" edge="1">
          <mxGeometry relative="1" as="geometry">
            <mxPoint x="400" y="440" as="sourcePoint" />
            <mxPoint x="440" y="430" as="targetPoint" />
          </mxGeometry>
        </mxCell>
        <mxCell id="t6r5ONHygv6hq4Dt3Neo-59" value="" style="endArrow=none;html=1;rounded=0;exitX=1;exitY=0.5;exitDx=0;exitDy=0;entryX=0;entryY=0.5;entryDx=0;entryDy=0;fontFamily=Times New Roman;" parent="1" source="JV7PK_FPuY5Su9PfBJnE-3" target="t6r5ONHygv6hq4Dt3Neo-54" edge="1">
          <mxGeometry relative="1" as="geometry">
            <mxPoint x="450" y="460" as="sourcePoint" />
            <mxPoint x="650" y="490" as="targetPoint" />
          </mxGeometry>
        </mxCell>
        <mxCell id="t6r5ONHygv6hq4Dt3Neo-60" value="Last_Name" style="ellipse;whiteSpace=wrap;html=1;align=center;fontFamily=Times New Roman;" parent="1" vertex="1">
          <mxGeometry x="830" y="721" width="100" height="40" as="geometry" />
        </mxCell>
        <mxCell id="t6r5ONHygv6hq4Dt3Neo-61" value="First_Name" style="ellipse;whiteSpace=wrap;html=1;align=center;fontFamily=Times New Roman;" parent="1" vertex="1">
          <mxGeometry x="885" y="678" width="100" height="40" as="geometry" />
        </mxCell>
        <mxCell id="t6r5ONHygv6hq4Dt3Neo-62" value="" style="endArrow=none;html=1;rounded=0;exitX=0.251;exitY=0.056;exitDx=0;exitDy=0;exitPerimeter=0;entryX=1;entryY=1;entryDx=0;entryDy=0;fontFamily=Times New Roman;" parent="1" source="t6r5ONHygv6hq4Dt3Neo-60" target="t6r5ONHygv6hq4Dt3Neo-34" edge="1">
          <mxGeometry relative="1" as="geometry">
            <mxPoint x="840" y="790" as="sourcePoint" />
            <mxPoint x="1000" y="790" as="targetPoint" />
          </mxGeometry>
        </mxCell>
        <mxCell id="t6r5ONHygv6hq4Dt3Neo-63" value="" style="endArrow=none;html=1;rounded=0;exitX=0;exitY=0.5;exitDx=0;exitDy=0;entryX=1;entryY=1;entryDx=0;entryDy=0;fontFamily=Times New Roman;" parent="1" source="t6r5ONHygv6hq4Dt3Neo-61" target="t6r5ONHygv6hq4Dt3Neo-34" edge="1">
          <mxGeometry relative="1" as="geometry">
            <mxPoint x="860" y="780" as="sourcePoint" />
            <mxPoint x="1020" y="780" as="targetPoint" />
          </mxGeometry>
        </mxCell>
        <mxCell id="nVpHr3NSZGoYZfjSHaR5-1" value="" style="endArrow=none;html=1;rounded=0;exitX=0.5;exitY=1;exitDx=0;exitDy=0;entryX=0;entryY=0;entryDx=0;entryDy=0;fontFamily=Times New Roman;" parent="1" source="kcpLFd30aflCC33Eu_P--55" target="kcpLFd30aflCC33Eu_P--12" edge="1">
          <mxGeometry relative="1" as="geometry">
            <mxPoint x="360" y="150" as="sourcePoint" />
            <mxPoint x="520" y="150" as="targetPoint" />
          </mxGeometry>
        </mxCell>
        <mxCell id="nVpHr3NSZGoYZfjSHaR5-3" value="" style="endArrow=none;html=1;rounded=0;exitX=0.5;exitY=1;exitDx=0;exitDy=0;entryX=1;entryY=0;entryDx=0;entryDy=0;fontFamily=Times New Roman;" parent="1" source="kcpLFd30aflCC33Eu_P--56" target="kcpLFd30aflCC33Eu_P--12" edge="1">
          <mxGeometry relative="1" as="geometry">
            <mxPoint x="500" y="110" as="sourcePoint" />
            <mxPoint x="660" y="110" as="targetPoint" />
          </mxGeometry>
        </mxCell>
        <mxCell id="nVpHr3NSZGoYZfjSHaR5-4" value="" style="endArrow=none;html=1;rounded=0;exitX=1;exitY=1;exitDx=0;exitDy=0;entryX=0.25;entryY=0;entryDx=0;entryDy=0;fontFamily=Times New Roman;" parent="1" source="kcpLFd30aflCC33Eu_P--42" target="kcpLFd30aflCC33Eu_P--1" edge="1">
          <mxGeometry relative="1" as="geometry">
            <mxPoint x="-10" y="150" as="sourcePoint" />
            <mxPoint x="150" y="150" as="targetPoint" />
          </mxGeometry>
        </mxCell>
        <mxCell id="nVpHr3NSZGoYZfjSHaR5-8" value="" style="endArrow=none;html=1;rounded=0;exitX=1;exitY=0.5;exitDx=0;exitDy=0;entryX=1;entryY=0.5;entryDx=0;entryDy=0;fontFamily=Times New Roman;" parent="1" source="kcpLFd30aflCC33Eu_P--6" target="nVpHr3NSZGoYZfjSHaR5-13" edge="1">
          <mxGeometry relative="1" as="geometry">
            <mxPoint x="440" y="480" as="sourcePoint" />
            <mxPoint x="450" y="890" as="targetPoint" />
            <Array as="points">
              <mxPoint x="1000" y="310" />
              <mxPoint x="1000" y="840" />
            </Array>
          </mxGeometry>
        </mxCell>
        <mxCell id="nVpHr3NSZGoYZfjSHaR5-10" value="" style="endArrow=none;html=1;rounded=0;exitX=0.5;exitY=1;exitDx=0;exitDy=0;entryX=0;entryY=0.5;entryDx=0;entryDy=0;fontFamily=Times New Roman;" parent="1" source="kcpLFd30aflCC33Eu_P--10" target="nVpHr3NSZGoYZfjSHaR5-13" edge="1">
          <mxGeometry relative="1" as="geometry">
            <mxPoint x="120" y="800" as="sourcePoint" />
            <mxPoint x="290" y="870" as="targetPoint" />
            <Array as="points">
              <mxPoint x="150" y="840" />
            </Array>
          </mxGeometry>
        </mxCell>
        <mxCell id="nVpHr3NSZGoYZfjSHaR5-11" value="License_ID" style="ellipse;whiteSpace=wrap;html=1;align=center;fontFamily=Times New Roman;" parent="1" vertex="1">
          <mxGeometry x="800" y="633" width="100" height="40" as="geometry" />
        </mxCell>
        <mxCell id="nVpHr3NSZGoYZfjSHaR5-12" value="" style="endArrow=none;html=1;rounded=0;exitX=0;exitY=0.5;exitDx=0;exitDy=0;entryX=1;entryY=0.75;entryDx=0;entryDy=0;fontFamily=Times New Roman;" parent="1" source="nVpHr3NSZGoYZfjSHaR5-11" target="kcpLFd30aflCC33Eu_P--11" edge="1">
          <mxGeometry relative="1" as="geometry">
            <mxPoint x="790" y="810" as="sourcePoint" />
            <mxPoint x="950" y="810" as="targetPoint" />
          </mxGeometry>
        </mxCell>
        <mxCell id="nVpHr3NSZGoYZfjSHaR5-13" value="Reserve" style="shape=rhombus;perimeter=rhombusPerimeter;whiteSpace=wrap;html=1;align=center;fontFamily=Times New Roman;" parent="1" vertex="1">
          <mxGeometry x="297" y="810" width="120" height="60" as="geometry" />
        </mxCell>
        <mxCell id="nVpHr3NSZGoYZfjSHaR5-15" value="N" style="resizable=0;html=1;whiteSpace=wrap;align=right;verticalAlign=bottom;fontFamily=Times New Roman;" parent="1" connectable="0" vertex="1">
          <mxGeometry x="292" y="838" as="geometry" />
        </mxCell>
        <mxCell id="nVpHr3NSZGoYZfjSHaR5-16" value="1" style="resizable=0;html=1;whiteSpace=wrap;align=right;verticalAlign=bottom;fontFamily=Times New Roman;" parent="1" connectable="0" vertex="1">
          <mxGeometry x="430" y="838" as="geometry" />
        </mxCell>
        <mxCell id="JV7PK_FPuY5Su9PfBJnE-2" value="&lt;span style=&quot;border-bottom: 1px dotted&quot;&gt;Comment&lt;/span&gt;" style="ellipse;whiteSpace=wrap;html=1;align=center;fontFamily=Times New Roman;" parent="1" vertex="1">
          <mxGeometry x="372" y="372" width="100" height="40" as="geometry" />
        </mxCell>
        <mxCell id="JV7PK_FPuY5Su9PfBJnE-3" value="Feedback" style="shape=ext;margin=3;double=1;whiteSpace=wrap;html=1;align=center;fontFamily=Times New Roman;" parent="1" vertex="1">
          <mxGeometry x="350" y="440" width="100" height="40" as="geometry" />
        </mxCell>
        <mxCell id="JV7PK_FPuY5Su9PfBJnE-39" value="Gives" style="shape=rhombus;double=1;perimeter=rhombusPerimeter;whiteSpace=wrap;html=1;align=center;" parent="1" vertex="1">
          <mxGeometry x="490" y="510" width="120" height="60" as="geometry" />
        </mxCell>
      </root>
    </mxGraphModel>
  </diagram>
</mxfile>
